<svg width="72" height="72" viewBox="0 0 72 72" fill="none" xmlns="http://www.w3.org/2000/svg">
<path d="M25.7144 30.8572C32.1051 30.8572 37.2858 25.6765 37.2858 19.2858C37.2858 12.8951 32.1051 7.71436 25.7144 7.71436C19.3236 7.71436 14.1429 12.8951 14.1429 19.2858C14.1429 25.6765 19.3236 30.8572 25.7144 30.8572Z" stroke="#9355E8" stroke-width="5.14286" stroke-linecap="round" stroke-linejoin="round"/>
<path d="M48.8571 69.4285H2.57141V64.2857C2.57141 58.1478 5.00967 52.2613 9.3498 47.9212C13.6899 43.5811 19.5764 41.1428 25.7143 41.1428C31.8521 41.1428 37.7386 43.5811 42.0787 47.9212C46.4189 52.2613 48.8571 58.1478 48.8571 64.2857V69.4285Z" stroke="#9355E8" stroke-width="5.14286" stroke-linecap="round" stroke-linejoin="round"/>
<path d="M46.2858 7.71436C49.3547 7.71436 52.2979 8.93348 54.468 11.1035C56.6381 13.2736 57.8572 16.2169 57.8572 19.2858C57.8572 22.3547 56.6381 25.298 54.468 27.468C52.2979 29.6381 49.3547 30.8572 46.2858 30.8572" stroke="#9355E8" stroke-width="5.14286" stroke-linecap="round" stroke-linejoin="round"/>
<path d="M54.5142 42.1196C58.895 43.7862 62.6666 46.7436 65.3298 50.6007C67.993 54.4577 69.4222 59.0325 69.4284 63.7196V69.4282H61.7142" stroke="#9355E8" stroke-width="5.14286" stroke-linecap="round" stroke-linejoin="round"/>
</svg>
